<svg xmlns="http://www.w3.org/2000/svg" width="55" height="64" fill="none" viewBox="0 0 55 64">
  <path fill="#43B049" fill-rule="evenodd" d="M27.1173 5c-1.0344 0-2.0689.07931-3.0414.15862 1.447.98379 2.8112 2.08398 4.0793 3.28964l1.0344.96206-1.0344 1.03448c-.9126.8489-1.7672 1.7578-2.5585 2.7207v.0793c-.1422.1522-.2758.3122-.4002.4793.6381-.066 1.2795-.0925 1.9208-.0793 4.8359.0662 9.4513 2.0337 12.8475 5.4768 3.3964 3.4431 5.3005 8.085 5.3005 12.9214 0 4.8362-1.9041 9.4781-5.3005 12.9213-3.3962 3.443-8.0116 5.4106-12.8475 5.4768-3.393.0197-6.7219-.9237-9.5999-2.7207-1.3805.1595-2.769.2402-4.1586.2414-.6414.0137-1.2829-.0138-1.9207-.0828.0741 2.1681.2617 4.3308.5621 6.4793 4.4514 3.0451 9.7238 4.6638 15.1171 4.6415 3.5456 0 7.0565-.6984 10.3324-2.0554 3.2758-1.3569 6.2523-3.3457 8.7593-5.8527 2.5072-2.5073 4.496-5.4837 5.8529-8.7596 1.3568-3.2756 2.0552-6.7867 2.0552-10.3323 0-3.5456-.6984-7.0565-2.0552-10.3324-1.3569-3.2757-3.3457-6.2522-5.8529-8.7593-2.507-2.5072-5.4835-4.49599-8.7593-5.85286C34.1738 5.69837 30.6629 5 27.1173 5ZM12.4792 9.31928c1.8468-1.19877 3.8342-2.1658 5.9171-2.87929-.6804 1.24674-1.2962 2.52775-1.8447 3.83791a37.312655 37.312655 0 0 0-4.0724-.95862Zm-1.518 9.81712c1.0798-.0721 2.1057-.1405 3.1973-.1405-1.1312 1.082-2.1009 2.3211-2.8792 3.6793-.2906-1.1572-.5049-2.3321-.6414-3.5173l.3233-.0215ZM9.99997 46.275v.1586l-.24138-.0723c-2.05819-.1739-4.09436-.5492-6.07926-1.1207l-.15863-.0792.07933-.1622c.61394-1.9134 1.36175-3.7813 2.2379-5.5895l.08276-.1622.15862.0794c1.34568.7682 2.73414 1.459 4.15859 2.0689l.1621.0794v.1585c-.2563 1.534-.39 3.0861-.40003 4.6413Zm-.00005 1.5959v-.1586h-.16207c-1.75027-.1823-3.4871-.4759-5.19996-.8793l-.47932-.0793.24137.3999c1.56671 2.3546 3.48158 4.4579 5.67926 6.2379l.3207.3208v-.5622c-.2444-1.7496-.378-3.5128-.39998-5.2792ZM25.1964 9.55765c-.5586.56205-1.1207 1.19995-1.6793 1.84135-.0689.0793-.4793.5586-.9621 1.2035-1.1179-.5314-2.2638-.9887-3.3994-1.442l-.1971-.0787c.6318-1.54867 1.3798-3.0472 2.2379-4.48276a47.243752 47.243752 0 0 1 4 2.95861ZM5.20004 26.8379l.07931.1586.15862-.0792c1.25919-.8996 2.56815-1.7273 3.92066-2.4793l.15862-.0794v-.162a30.940383 30.940383 0 0 1-.8793-4.7138v-.162h-.15862c-1.98982.3629-3.94431.8983-5.84135 1.6l-.15862.0793.07931.162c.63285 1.9977 1.52061 3.9054 2.64137 5.6758Zm-.47944 2.718.15861-.1585.09655.2275c.86973 1.2216 1.8044 2.3958 2.79997 3.5172l.07933.0794-.07933.162c-.87775 1.1768-1.68379 2.4055-2.41376 3.6793l-.07932.1586-.15862-.0794a46.083125 46.083125 0 0 1-4.482728-3.3586l-.162069-.162.162069-.1449C1.89989 32.0684 3.26357 30.7576 4.7206 29.5559Zm10.7967 16.9589h.4793l-.4-.3208c-1.4505-1.1705-2.6942-2.5763-3.6793-4.1585v-.0794l-.3173-.162v.2414c-.1905 1.4062-.2975 2.8224-.3206 4.2413v.1586h.1586c.3207 0 .6405.0198.9603.0396.3198.02.6397.0398.9603.0398h2.1587Zm.2413-33.8345c-.4575 1.2814-.8318 2.591-1.1207 3.9206-1.3895-.0045-2.7781.0727-4.1586.231-.0919-1.7595-.0654-3.5232.0793-5.2792 1.7576.2535 3.4952.6303 5.2 1.1276Zm1.4378 3.8351a23.4162 23.4162 0 0 1 3.762-1.8379c-.9315-.4672-1.8948-.8681-2.8827-1.2-.3171.9586-.6379 1.9999-.8793 3.0379ZM4.48274 38.449h.15518l-.07587.3173a44.74687 44.74687 0 0 0-1.92067 4.4828l-.15863.3999-.15862-.3999a25.248596 25.248596 0 0 1-2.162051-7.5172l-.07931-.4827.399998.3205C1.76316 36.601 3.09844 37.5621 4.48274 38.449Zm3.59655-25.6103a26.736946 26.736946 0 0 0-4.15861 5.3586c1.34845-.397 2.77842-.7125 4.20564-1.0274l.03227-.0071c-.0793-1.4448-.0793-2.8827-.0793-4.3241Zm.79995 18.4775v.4791l-.22759-.4034c-.60674-.6669-1.1659-1.427-1.71506-2.1736-.17483-.2376-.34884-.4742-.52284-.7056l-.24138-.162.16207-.0794c.99306-.6919 1.98613-1.3074 2.97919-1.923l.12422-.077.4-.238-.15862.4828c-.47302 1.5586-.74192 3.1721-.79999 4.8001Zm.23801 3.281-.0793-.4793-.23795.3999c-.72068 1.0345-1.44136 2.1586-2.06895 3.2793l-.08275.1587.16208.0792c1.08635.6237 2.25095 1.1691 3.41772 1.7156l.0995.0466.4.1586-.1586-.4c-.72374-1.573-1.21285-3.2437-1.45175-4.9586Zm-5.11727-6.5743-.16207.0794c-1.30645.9754-2.48776 2.1079-3.517222 3.3723L0 31.7953v-.4793a26.978593 26.978593 0 0 1 1.2793-7.6l.16208-.4793.15861.3999c.69437 1.4503 1.46913 2.8604 2.32067 4.2243l.07932.162Z" clip-rule="evenodd"/>
</svg>
