<svg fill="none" height="64" viewBox="0 0 47 64" width="47" xmlns="http://www.w3.org/2000/svg"><g fill="#2ba977"><path d="m21.1407 2h9.8127v45.0277c-5.0262.9519-8.7263 1.3263-12.7298 1.3263-11.98497-.0125-18.2236-5.3731-18.2236-15.6684 0-9.9196 6.61756-16.3573 16.8723-16.3573 1.5913 0 2.8035.1254 4.2684.501zm.3439 22.9438c-1.1493-.3759-2.0963-.501-3.3088-.501-4.9631 0-7.8298 3.0309-7.8298 8.3426 0 5.1715 2.7406 8.0271 7.7669 8.0271 1.0859 0 1.9699-.0612 3.3717-.2491z"/><path d="m47.0004 17.5372v22.5446c0 7.7641-.5805 11.4977-2.2856 14.7167-1.5913 3.0948-3.6879 5.0461-8.0195 7.2015l-9.1055-4.2959c4.3318-2.0153 6.4281-3.7962 7.7669-6.5141 1.4015-2.7791 1.8436-5.9982 1.8436-14.4648v-19.1879h9.8001zm-10.789-15.5372h9.8132v9.9822h-9.8132z"/></g></svg>