<svg xmlns="http://www.w3.org/2000/svg" width="55" height="64" fill="none" viewBox="0 0 55 64">
  <path fill="#fff" fill-opacity=".980392" d="M27.5 4a27.498825 27.498825 0 0 0-10.5234 2.09271c-3.3364 1.38178-6.3679 3.40717-8.92151 5.96049-2.55361 2.5534-4.57929 5.5847-5.96139 8.9209C.711608 24.3104.000167 27.8861 0 31.4973c-.000542 3.6116.710376 7.188 2.09215 10.5248 1.38178 3.3369 3.40735 6.3688 5.96103 8.9228 2.55372 2.5539 5.58542 4.5798 8.92212 5.9619C20.3121 58.2889 23.8884 59.0002 27.5 59c3.6116.0002 7.1879-.7111 10.5247-2.0932 3.3367-1.3821 6.3684-3.408 8.9221-5.9619 2.5537-2.554 4.5793-5.5859 5.961-8.9228 1.3818-3.3368 2.0927-6.9132 2.0922-10.5248a27.499375 27.499375 0 0 0-2.0937-10.5232c-1.3821-3.3362-3.4078-6.3675-5.9614-8.9209-2.5536-2.55332-5.5851-4.57871-8.9215-5.96049A27.498825 27.498825 0 0 0 27.5 4Zm-1.8997 12.4502h17.3019L25.5303 28.7006h11.8772L12.0978 46.5444l5.4947-12.245 2.5132-5.5988 5.4946-12.2504Z"/>
</svg>
