<svg xmlns="http://www.w3.org/2000/svg" width="64" height="64" fill="none" viewBox="0 0 64 64">
  <path fill="#3BABC3" d="M28.7291 8.00983c-.0072-.53133-.0619-.7095-.3456-.87334-.2693-.17831-.6769-.18189-1.0661-.01088L1.11908 18.3435c-.389377.171-.756865.5131-.953345.8843-.19648.371-.21824.7641-.065408 1.0442l2.186753 4.0171.02918.0473c.23642.3747.77133.473 1.31712.2329l.16013-.0691c.68403 2.8672 1.8048 6.4549 3.30023 9.0129L29.9154 23.2994c-.3276-2.9619-1.2227-11.469-1.1863-15.29328v.00371Zm1.8122 18.66257L8.56396 36.5076c1.29165 2.4489 2.88534 5.0468 4.82844 7.5502 6.4549-3.2893 12.9135-6.5787 19.3684-9.868-.4184-1.0843-.8258-2.2596-2.2195-7.5174Zm33.1518 23.4329-1.5538-2.3725c-.2328-.2583-.593-.3566-.9096-.2292l-1.994.7679c-.2365-.2621-.5785-.3604-.9132-.2293-.6514.2547-1.3064.513-1.9577.7678-.211.08-.2693.2364-.2292.4402l.1273.6222c-3.675.3966-9.8862.2001-15.4497-4.1699-2.4596-1.9284-4.7666-4.6574-6.6914-8.4744l-18.528 9.4423c3.3876 3.7223 7.6412 7.0226 12.9245 9.0093 7.35 2.769 16.7159 3.0309 28.5233-1.7248l.0655.3349c.0582.3747.5094.7713 1.1206.5312l1.9614-.7642c.673-.2547.6767-.7713.5784-1.106l2.5253-.9862c.2838-.1091 1.1643-.7896.4075-1.8593h-.0072Z"/>
</svg>