<svg xmlns="http://www.w3.org/2000/svg" width="46" height="64" fill="none" viewBox="0 0 46 64">
  <path fill="#767677" d="M44.7032 5.40244c.0434.71766-.1256 1.43213-.4855 2.0524-.36.62028-.8945 1.11826-1.5355 1.43054-.641.31227-1.3596.42469-2.0641.32294-.7045-.10176-1.363-.41308-1.8918-.89432-.5287-.48122-.9037-1.11058-1.0772-1.8079-.1734-.69731-.1375-1.43101.1032-2.10762.2407-.67662.6753-1.26553 1.2485-1.69171.5732-.42617 1.2589-.67033 1.9699-.70136.4662-.02592.9328.04152 1.3731.19844.4402.15693.8454.40023 1.1923.71593.3469.3157.6286.69756.8288 1.12363.2003.42606.3153.88793.3383 1.35903Z"/>
  <path fill="#F37726" d="M23.796 47.2385c-9.516 0-17.87966-3.4505-22.2042-8.5461 1.67793 4.5841 4.70558 8.5388 8.6754 11.3318 3.9698 2.793 8.6914 4.2902 13.5288 4.2902 4.8376 0 9.5591-1.4972 13.529-4.2902 3.9698-2.793 6.9974-6.7477 8.6754-11.3318-4.3139 5.0956-12.6459 8.5461-22.2044 8.5461Zm0-33.1351c9.5162 0 17.8799 3.4505 22.2044 8.546-1.678-4.584-4.7056-8.5387-8.6754-11.3317-3.9699-2.793-8.6914-4.29027-13.529-4.29027-4.8374 0-9.559 1.49727-13.5288 4.29027-3.96982 2.793-6.99747 6.7477-8.6754 11.3317 4.32454-5.1062 12.6459-8.546 22.2042-8.546Z"/>
  <path fill="#9E9E9E" d="M10.6958 57.1546c.0558.9039-.156 1.8042-.6084 2.5861-.45247.7819-1.12505 1.41-1.93208 1.8043-.80703.3943-1.71199.537-2.59955.4098-.88758-.1272-1.71759-.5184-2.3843-1.1239-.6667-.6054-1.13991-1.3977-1.35933-2.2758-.21942-.8782-.17513-1.8025.12724-2.6551s.84913-1.595 1.5706-2.1325c.72149-.5376 1.58503-.846 2.48062-.8859.58668-.0317 1.17379.0537 1.72781.2513.55401.1976 1.06406.5035 1.50101.9003.43694.3968.79228.8767 1.04558 1.4123.2533.5356.3997 1.1163.4308 1.7091Z"/>
  <path fill="#616262" d="M2.6729 12.9422c-.51276.0143-1.01826-.1249-1.45294-.4-.434668-.2752-.779103-.6741-.989985-1.1465-.210882-.4724-.278796-.9973-.1952-1.50864.083595-.51132.314967-.98626.665018-1.36507.350057-.37882.803157-.64461 1.302337-.76394.49916-.11934 1.02211-.0869 1.50309.09324.48097.18015.89848.49995 1.20002.91919.30155.41924.47368.91921.49472 1.43702.02004.7002-.23409 1.3801-.70722 1.8921-.47313.512-1.12708.8148-1.81984.8426Z"/>
</svg>
